<?xml version="1.0" encoding="utf-8"?>
<!-- Generator: Adobe Illustrator 16.0.0, SVG Export Plug-In . SVG Version: 6.00 Build 0)  -->
<!DOCTYPE svg PUBLIC "-//W3C//DTD SVG 1.1//EN" "http://www.w3.org/Graphics/SVG/1.1/DTD/svg11.dtd">
<svg version="1.1" id="Layer_1" xmlns="http://www.w3.org/2000/svg" xmlns:xlink="http://www.w3.org/1999/xlink" x="0px" y="0px"
	 width="1030px" height="160px" viewBox="240 665 1030 160"  xml:space="preserve">
<g>
	<path fill-rule="evenodd" clip-rule="evenodd" fill="#FD9506" d="M880.729,726.732c6.063-3.804,13.108-5.9,20.48-5.9
		c21.352,0,38.908,17.473,38.908,38.84c0,21.385-17.574,38.705-38.908,38.705c-21.352,0-38.771-17.338-38.771-38.705v-60.151h18.291
		V726.732z M985.619,720.832c21.352,0,38.909,17.473,38.909,38.84c0,21.385-17.575,38.705-38.909,38.705
		c-21.351,0-38.772-17.338-38.772-38.705C946.847,738.321,964.25,720.832,985.619,720.832z M1031.258,723.583h18.291v27.343
		c0,4.754-0.003,9.512,0.134,14.265l0.002,0.077v0.076c0,8.086,6.545,14.74,14.65,14.74c8.159,0,14.786-6.571,14.786-14.74v-41.762
		h18.273l0.154,41.743c0.068,18.301-14.977,33.051-33.214,33.051c-18.19,0-33.077-14.833-33.077-33.032V723.583z M1122.3,753.936
		l0.291,42.133h-18.313v-42.204c0-13.352,6.345-24.786,18.82-30.166c4.342-1.873,9.073-2.819,13.796-2.866h0.326
		c19.13,0,33.213,13.374,33.213,32.896v42.34h-18.292V754c0-8.17-6.627-14.741-14.785-14.741
		C1128.303,739.259,1122.622,744.891,1122.3,753.936z M1236.417,726.676v-27.155h18.428v60.151
		c0,21.385-17.575,38.705-38.908,38.705c-21.352,0-38.772-17.338-38.772-38.705c0-21.351,17.402-38.84,38.772-38.84
		C1223.298,720.832,1230.359,722.89,1236.417,726.676z M901.209,739.259c-11.35,0-20.345,9.083-20.345,20.413
		c0,11.33,8.995,20.413,20.345,20.413c11.332,0,20.481-9.065,20.481-20.413S912.54,739.259,901.209,739.259z M985.619,739.259
		c-11.331,0-20.48,9.065-20.48,20.413s9.149,20.413,20.48,20.413c11.332,0,20.482-9.065,20.482-20.413
		S996.95,739.259,985.619,739.259z M1215.937,739.259c-11.332,0-20.481,9.065-20.481,20.413s9.149,20.413,20.481,20.413
		c11.331,0,20.48-9.065,20.48-20.413S1227.268,739.259,1215.937,739.259z"/>
	<path fill-rule="evenodd" clip-rule="evenodd" fill="#FFFFFF" d="M456.71,724.714c4.498-2.149,9.464-3.418,14.297-3.86l0.244-0.023
		h0.245c18.204,0,33.077,14.306,33.077,32.625v42.611h-18.291v-3.041c0-8.73,0.135-17.461,0.135-26.191
		c0-4.221,0.003-8.445-0.133-12.664l-0.002-0.086V754c0-8.17-6.627-14.741-14.786-14.741c-8.059,0-14.786,5.833-14.786,14.086
		v42.724h-18.292v-96.547h18.292V724.714z M511.304,723.583h18.292v27.343c0,4.754-0.003,9.512,0.133,14.265l0.002,0.077v0.076
		c0,8.086,6.545,14.74,14.651,14.74c8.159,0,14.786-6.571,14.786-14.74v-41.762h18.272l0.155,41.742
		c0.068,18.302-14.976,33.052-33.213,33.052c-18.191,0-33.078-14.833-33.078-33.032V723.583z M641.354,731.386
		c6.196-6.172,15.354-10.418,23.573-10.418c18.583,0,33.417,14.346,33.417,33.033v42.068h-18.427v-3.041
		c0-8.73,0.136-17.461,0.136-26.191c0-4.221,0.002-8.445-0.133-12.664l-0.002-0.086V754c0-8.14-6.574-14.741-14.718-14.741
		c-8.13,0-14.621,6.742-14.719,14.741v42.068h-18.292V754c0-8.17-6.627-14.741-14.786-14.741c-8.146,0-14.688,6.71-14.787,14.741
		v42.068h-18.291V754c0-18.253,14.805-33.168,33.078-33.168C625.662,720.832,635.02,725.18,641.354,731.386z M764.395,792.565
		c-6.075,3.765-13.144,5.812-20.481,5.812c-21.352,0-38.772-17.338-38.772-38.705c0-21.351,17.403-38.84,38.772-38.84
		c21.351,0,38.908,17.473,38.908,38.84v36.375h-18.427V792.565z M807.572,753.936l0.308,42.133h-18.328v-42.204
		c0-13.352,6.345-24.786,18.82-30.166c4.341-1.873,9.073-2.819,13.796-2.866l0.326,0c19.13,0,33.213,13.374,33.213,32.897v42.34
		h-18.292V754c0-8.17-6.627-14.741-14.786-14.741C813.576,739.259,807.896,744.891,807.572,753.936z M743.914,739.259
		c-11.332,0-20.481,9.065-20.481,20.413s9.149,20.413,20.481,20.413s20.481-9.065,20.481-20.413S755.244,739.259,743.914,739.259z"
		/>
	<path fill="#FD9506" d="M352.976,684.848l6.675,11.563l6.324,10.954c1.182,2.046,2.543,3.716,5.134,3.716h28.187
		c1.158,0,1.551-0.59,0.947-1.638c-4.09-7.085-8.173-14.169-12.264-21.254c-1.133-1.963-2.143-3.125-3.337-3.739
		c-1.24-0.638-2.956-0.833-5.427-0.833H367.04h-13.373C352.792,683.615,352.531,684.078,352.976,684.848 M366.727,791.347
		c-4.644,8.043-9.2,15.923-13.843,23.965c-0.302,0.523-0.053,1.073,0.511,1.073h25.364h0.457c2.499,0,4.998-0.03,6.858-1.922
		l0.051-0.054h0l0.051-0.054l0.051-0.055l0.051-0.057h0l0.051-0.057l0,0l0.051-0.059l0.051-0.06l0,0l0.051-0.06h0l0.051-0.062
		l0.05-0.062l0.051-0.063l0.051-0.064l0.051-0.065l0,0l0.051-0.066l0.051-0.067l0.051-0.068l0,0l0.051-0.069l0.051-0.07l0.051-0.071
		h0l0.051-0.073l0.051-0.074h0l0.051-0.074l0.051-0.076l0.052-0.077h0l0.051-0.078l0,0l0.052-0.079l0.052-0.08l0.052-0.082h0
		l0.052-0.083l0.052-0.084l0.053-0.085l0,0l0.052-0.086h0l0.053-0.087l0.052-0.089l0.054-0.09l0.053-0.091l0.053-0.092l0.005,0.003
		c4.153-7.193,8.299-14.387,12.453-21.581c0.341-0.589,0.072-1.302-1.14-1.302H371.11
		C369.432,788.92,367.639,789.95,366.727,791.347z M354.427,768.853c-0.637-1.104-1.427-2.258-2.354-3.256
		c-2.905-3.123-6.154-3.708-9.45-0.695c-1.236,1.129-2.266,2.582-3.057,3.95l-9.16,15.866l15.852,27.456
		c0.457,0.807,1.06,0.725,1.377,0.175l15.004-25.989c0.893-1.547,0.874-1.781-0.078-3.432l-1.938-3.354
		C358.558,776,356.492,772.426,354.427,768.853z M267.911,688.437c-1.047-1.809-1.437-1.29-2.296,0.196
		c-4.362,7.549-8.719,15.1-13.079,22.654c-0.709,1.228-1.403,2.651-1.349,4.106c0.062,1.643,1.018,3.311,1.826,4.711l14.866,25.749
		c1.421,2.462,1.417,5.84-0.004,8.3l-14.625,25.328c-0.899,1.557-1.997,3.351-2.063,5.125c-0.054,1.455,0.641,2.879,1.349,4.106
		c4.371,7.572,8.74,15.149,13.112,22.723c0.623,1.077,1.738,1.05,2.464-0.208c11.192-19.386,22.383-38.769,33.576-58.155
		c0.554-0.959,0.933-1.971,0.918-3.089c-0.016-1.161-0.449-2.242-1.022-3.236C290.363,727.309,279.154,707.862,267.911,688.437z
		 M362.561,717.072c0.952-1.65,0.971-1.884,0.078-3.431l-15.004-25.989c-0.317-0.55-0.921-0.632-1.377,0.174l-15.852,27.457
		c2.817,4.889,5.641,9.773,8.463,14.658l0.349,0.604l0.349,0.604c1.466,2.538,4.12,5.926,7.441,5.935
		c3.305,0.008,5.967-3.418,7.42-5.935l0.698-1.207C357.604,725.651,360.083,721.362,362.561,717.072z M401.055,719.717
		c0.954-1.651,0.387-2.537-1.161-2.537h-28.785c-1.749,0-1.762,0.193-2.853,2.082c-2.868,4.968-5.736,9.936-8.605,14.904
		c-3.773,6.536-6.526,8.96-12.66,8.943c-5.744-0.013-9.954-4.274-12.65-8.943c-2.325-4.019-4.673-8.024-7.014-12.034
		c-6.751-11.514-13.544-23.003-19.965-34.707c-1.713-3.123-2.888-3.81-6.419-3.81h-26.253c-1.614,0-2.473,0.223-1.561,1.802
		c11.232,19.435,22.453,38.876,33.676,58.317c1.187,2.056,1.801,4.089,1.829,6.168c0.028,2.097-0.543,4.136-1.726,6.185
		l-7.388,12.797l-0.005-0.003c-8.671,15.021-17.338,30.044-26.01,45.063c-0.804,1.392-0.378,2.44,1.186,2.44h12.175h14.079
		c3.536,0,4.632-0.713,6.412-3.797c8.784-15.215,17.563-30.42,26.342-45.626c2.916-5.052,6.959-10.088,13.297-10.097
		c5.854-0.007,9.695,4.226,12.527,8.789c2.977,4.795,5.72,9.86,8.543,14.75c1.236,2.141,2.05,2.416,3.498,2.416h27.96
		c1.736,0,2.223-1.342,1.533-2.537l-6.582-11.399v-0.012l-8.002-13.859c-1.094-1.896-1.61-3.451-1.573-5.151
		c0.046-2.154,0.948-3.79,1.974-5.568C391.6,736.102,396.327,727.908,401.055,719.717z M352.961,677.515h14.079h12.175
		c3.409,0,5.948,0.358,8.215,1.525c2.312,1.19,4.061,3.084,5.815,6.122c4.448,7.705,8.894,15.394,13.343,23.099
		c1.55,2.685,2.241,4.965,2.153,7.357c-0.087,2.346-0.919,4.55-2.419,7.149c-4.805,8.322-9.607,16.628-14.481,25.071
		c-0.97,1.681-0.842,2.868-0.102,4.149c4.861,8.421,9.722,16.827,14.583,25.247c1.501,2.6,2.333,4.804,2.419,7.149
		c0.088,2.392-0.603,4.673-2.153,7.357c-4.449,7.705-8.919,15.379-13.343,23.098c-1.586,2.771-3.353,4.944-6.135,6.281l-0.108,0.051
		l0,0l-0.108,0.049l-0.108,0.049l0,0l-0.109,0.047l0,0c-2.138,0.897-5.55,1.168-7.46,1.171h-12.175h-14.079
		c-5.586-0.012-8.787-1.848-11.718-6.94l-14.288-24.748c-4.781,8.281-9.56,16.546-14.34,24.826
		c-2.897,5.019-5.846,6.862-11.673,6.862h-26.253c-3.409,0-5.948-0.358-8.215-1.524c-2.316-1.193-4.064-3.081-5.81-6.104
		c-0.004-0.007-0.008-0.013-0.012-0.02l-13.327-23.084c-1.316-2.267-2.26-4.711-2.161-7.371c0.1-2.677,1.188-5.004,2.5-7.279
		l14.466-25.056c1.183-2.052,0.956-2.44-0.204-4.448l-0.829-1.436l-13.515-23.409c-1.501-2.6-2.333-4.801-2.419-7.138
		c-0.088-2.383,0.602-4.66,2.152-7.344v-0.012l13.028-22.564c1.571-2.722,3.229-5.165,6.13-6.658
		c2.267-1.167,4.806-1.525,8.215-1.525h12.175h14.079c4.558,0,8.549,1.452,11.673,6.862l14.336,24.832l7.389-12.798l6.696-11.598
		C343.971,679.625,346.742,677.515,352.961,677.515z"/>
</g>
</svg>
