<?xml version="1.0" encoding="utf-8"?>
<!-- Generator: Adobe Illustrator 16.0.0, SVG Export Plug-In . SVG Version: 6.00 Build 0)  -->
<!DOCTYPE svg PUBLIC "-//W3C//DTD SVG 1.1//EN" "http://www.w3.org/Graphics/SVG/1.1/DTD/svg11.dtd">
<svg version="1.1" id="Layer_1" xmlns="http://www.w3.org/2000/svg" xmlns:xlink="http://www.w3.org/1999/xlink" x="0px" y="0px"
	 width="1030px" height="160px" viewBox="240 665 1030 160"  xml:space="preserve">
<rect fill-rule="evenodd" clip-rule="evenodd" fill="#FD9506" width="1500" height="1500"/>
<path fill="#1E2323" d="M391.738,751.986c-0.74-1.281-0.869-2.468,0.102-4.148l7.895-13.675l0.005,0.003l6.581-11.399
	c1.501-2.599,2.333-4.804,2.42-7.149c0.089-2.392-0.603-4.672-2.153-7.357c-4.449-7.705-8.895-15.394-13.343-23.099
	c-1.754-3.038-3.503-4.932-5.815-6.122c-2.267-1.167-4.806-1.525-8.215-1.525h-12.174h-14.079c-6.22,0-8.991,2.11-11.924,7.297
	l-6.696,11.599l-7.389,12.798l-14.336-24.832c-3.124-5.41-7.115-6.862-11.673-6.862h-14.079h-12.175
	c-3.409,0-5.948,0.358-8.215,1.525c-2.901,1.493-4.56,3.937-6.131,6.658l-13.028,22.564v0.012c-1.549,2.684-2.24,4.961-2.152,7.344
	c0.087,2.336,0.918,4.538,2.419,7.138l13.515,23.409l0.829,1.436c1.16,2.008,1.387,2.396,0.204,4.448l-14.466,25.056
	c-1.313,2.275-2.401,4.603-2.501,7.279c-0.099,2.66,0.845,5.104,2.161,7.371l13.327,23.084c0.004,0.007,0.008,0.013,0.012,0.02
	c1.746,3.022,3.494,4.91,5.811,6.104c2.267,1.166,4.806,1.524,8.215,1.524h26.254c5.827,0,8.775-1.844,11.673-6.862
	c4.78-8.28,9.559-16.545,14.34-24.826l14.288,24.748c2.931,5.093,6.132,6.929,11.718,6.94h14.079h12.174
	c1.911-0.004,5.323-0.274,7.461-1.171l0.109-0.047l0.108-0.049l0.108-0.049l0.107-0.051c2.783-1.337,4.55-3.51,6.136-6.281
	c4.424-7.719,8.894-15.393,13.343-23.098c1.55-2.686,2.242-4.966,2.153-7.357c-0.087-2.346-0.918-4.55-2.42-7.15
	C401.46,768.813,396.6,760.407,391.738,751.986z M353.668,683.615h13.372h12.175c2.471,0,4.188,0.196,5.427,0.833
	c1.194,0.614,2.204,1.776,3.337,3.739c4.091,7.085,8.174,14.169,12.264,21.254c0.604,1.048,0.211,1.638-0.947,1.638h-28.187
	c-2.591,0-3.953-1.67-5.134-3.716l-6.324-10.953l-6.675-11.563C352.531,684.078,352.792,683.615,353.668,683.615z M400.438,790.222
	c-4.153,7.194-8.3,14.388-12.453,21.581l-0.005-0.003l-0.053,0.092l-0.053,0.091l-0.053,0.09l-0.053,0.089l-0.053,0.087h0
	l-0.052,0.086h0l-0.052,0.085l-0.052,0.084l-0.052,0.083h0l-0.052,0.081l-0.052,0.081l-0.052,0.079l-0.051,0.078h0l-0.052,0.077
	l-0.051,0.076l-0.051,0.074h0l-0.051,0.074l-0.051,0.072h0l-0.051,0.072l-0.051,0.07l-0.051,0.069l-0.051,0.068l-0.051,0.067
	l-0.051,0.066l-0.051,0.065l-0.051,0.064l-0.051,0.063l-0.05,0.062l-0.051,0.062h0l-0.051,0.06l-0.051,0.06l-0.051,0.059
	l-0.051,0.057h0l-0.051,0.057l-0.051,0.055l-0.051,0.054h0l-0.051,0.054c-1.86,1.892-4.359,1.922-6.858,1.922h-0.456h-25.364
	c-0.563,0-0.813-0.55-0.511-1.072c4.643-8.043,9.199-15.923,13.843-23.966c0.912-1.396,2.705-2.427,4.383-2.427h28.187
	C400.509,788.92,400.777,789.633,400.438,790.222z M399.522,782.819h-27.96c-1.448,0-2.262-0.274-3.498-2.415l-7.762-13.443
	c-2.902-5.027-6.898-10.104-13.308-10.096c-6.338,0.009-10.381,5.045-13.297,10.097c-8.779,15.206-17.558,30.411-26.342,45.626
	c-1.78,3.084-2.876,3.797-6.412,3.797h-14.079h-12.175c-1.563,0-1.989-1.049-1.186-2.44c8.672-15.021,17.339-30.043,26.01-45.063
	l0.005,0.003l7.389-12.798c1.182-2.048,1.753-4.087,1.725-6.184c-0.028-2.079-0.642-4.112-1.829-6.168
	c-11.223-19.438-22.441-38.878-33.676-58.317c-0.912-1.578-0.053-1.802,1.561-1.802h26.254c3.531,0,4.706,0.687,6.419,3.81
	c8.655,15.774,17.983,31.16,26.979,46.741c2.696,4.669,6.906,8.93,12.65,8.943c6.134,0.017,8.887-2.408,12.66-8.943l8.605-14.904
	c1.091-1.89,1.104-2.082,2.853-2.082h28.785c1.548,0,2.114,0.885,1.161,2.537c-4.73,8.192-9.453,16.385-14.183,24.577
	c-1.026,1.778-1.927,3.414-1.974,5.568c-0.037,1.699,0.479,3.255,1.573,5.151l8.002,13.859v0.012l6.582,11.399
	C401.745,781.479,401.259,782.819,399.522,782.819z"/>
<path fill-rule="evenodd" clip-rule="evenodd" fill="#1E2323" d="M880.729,726.732c6.063-3.804,13.108-5.9,20.48-5.9
	c21.352,0,38.908,17.473,38.908,38.84c0,21.385-17.574,38.705-38.908,38.705c-21.352,0-38.771-17.338-38.771-38.705v-60.151h18.291
	V726.732z M985.619,720.832c21.352,0,38.909,17.473,38.909,38.84c0,21.385-17.575,38.705-38.909,38.705
	c-21.351,0-38.772-17.338-38.772-38.705C946.847,738.321,964.25,720.832,985.619,720.832z M1031.258,723.583h18.291v27.343
	c0,4.754-0.003,9.512,0.134,14.265l0.002,0.077v0.076c0,8.086,6.545,14.74,14.65,14.74c8.159,0,14.786-6.571,14.786-14.74v-41.762
	h18.273l0.154,41.743c0.068,18.301-14.977,33.051-33.214,33.051c-18.19,0-33.077-14.833-33.077-33.032V723.583z M1122.3,753.936
	l0.291,42.133h-18.313v-42.204c0-13.352,6.345-24.786,18.82-30.166c4.342-1.873,9.073-2.819,13.796-2.866h0.326
	c19.13,0,33.213,13.374,33.213,32.896v42.34h-18.292V754c0-8.17-6.627-14.741-14.785-14.741
	C1128.303,739.259,1122.622,744.891,1122.3,753.936z M1236.417,726.676v-27.155h18.428v60.151c0,21.385-17.575,38.705-38.908,38.705
	c-21.352,0-38.772-17.338-38.772-38.705c0-21.351,17.402-38.84,38.772-38.84C1223.298,720.832,1230.359,722.89,1236.417,726.676z
	 M901.209,739.259c-11.35,0-20.345,9.083-20.345,20.413c0,11.33,8.995,20.413,20.345,20.413c11.332,0,20.481-9.065,20.481-20.413
	S912.54,739.259,901.209,739.259z M985.619,739.259c-11.331,0-20.48,9.065-20.48,20.413s9.149,20.413,20.48,20.413
	c11.332,0,20.482-9.065,20.482-20.413S996.95,739.259,985.619,739.259z M1215.937,739.259c-11.332,0-20.481,9.065-20.481,20.413
	s9.149,20.413,20.481,20.413c11.331,0,20.48-9.065,20.48-20.413S1227.268,739.259,1215.937,739.259z"/>
<path fill-rule="evenodd" clip-rule="evenodd" fill="#1E2323" d="M456.71,724.714c4.498-2.149,9.464-3.418,14.297-3.86l0.244-0.023
	h0.245c18.204,0,33.077,14.306,33.077,32.625v42.611h-18.291v-3.041c0-8.73,0.135-17.461,0.135-26.191
	c0-4.221,0.003-8.445-0.133-12.664l-0.002-0.086V754c0-8.17-6.627-14.741-14.786-14.741c-8.059,0-14.786,5.833-14.786,14.086v42.724
	h-18.292v-96.547h18.292V724.714z M511.304,723.583h18.292v27.343c0,4.754-0.003,9.512,0.133,14.265l0.002,0.077v0.076
	c0,8.086,6.545,14.74,14.651,14.74c8.159,0,14.786-6.571,14.786-14.74v-41.762h18.272l0.155,41.742
	c0.068,18.302-14.976,33.052-33.213,33.052c-18.191,0-33.078-14.833-33.078-33.032V723.583z M641.354,731.386
	c6.196-6.172,15.354-10.418,23.573-10.418c18.583,0,33.417,14.346,33.417,33.033v42.068h-18.427v-3.041
	c0-8.73,0.136-17.461,0.136-26.191c0-4.221,0.002-8.445-0.133-12.664l-0.002-0.086V754c0-8.14-6.574-14.741-14.718-14.741
	c-8.13,0-14.621,6.742-14.719,14.741v42.068h-18.292V754c0-8.17-6.627-14.741-14.786-14.741c-8.146,0-14.688,6.71-14.787,14.741
	v42.068h-18.291V754c0-18.253,14.805-33.168,33.078-33.168C625.662,720.832,635.02,725.18,641.354,731.386z M764.395,792.565
	c-6.075,3.765-13.144,5.812-20.481,5.812c-21.352,0-38.772-17.338-38.772-38.705c0-21.351,17.403-38.84,38.772-38.84
	c21.351,0,38.908,17.473,38.908,38.84v36.375h-18.427V792.565z M807.572,753.936l0.308,42.133h-18.328v-42.204
	c0-13.352,6.345-24.786,18.82-30.166c4.341-1.873,9.073-2.819,13.796-2.866l0.326,0c19.13,0,33.213,13.374,33.213,32.897v42.34
	h-18.292V754c0-8.17-6.627-14.741-14.786-14.741C813.576,739.259,807.896,744.891,807.572,753.936z M743.914,739.259
	c-11.332,0-20.481,9.065-20.481,20.413s9.149,20.413,20.481,20.413s20.481-9.065,20.481-20.413S755.244,739.259,743.914,739.259z"/>
</svg>
